<svg width="22" height="20" viewBox="0 0 22 20" fill="none" xmlns="http://www.w3.org/2000/svg">
<path d="M11.0225 18.7598C9.1113 17.3406 5.87097 14.7651 3.57812 11.8076C2.30287 10.1627 1.38344 8.47738 1.0957 6.87305C0.817564 5.32194 1.11871 3.80773 2.3789 2.36426C3.14446 1.48748 3.96954 1.12357 4.7793 1.02735C5.61762 0.92778 6.50482 1.10903 7.35547 1.43848C8.20174 1.76623 8.95803 2.21932 9.50879 2.59863C9.78193 2.78675 9.99945 2.953 10.1465 3.07031C10.2199 3.12887 10.2748 3.1758 10.3105 3.20606C10.3284 3.22113 10.3419 3.23156 10.3496 3.23828C10.353 3.24126 10.3551 3.24392 10.3564 3.24512L11.0176 3.83203L11.6807 3.25L11.6816 3.24902C11.683 3.24787 11.6857 3.24544 11.6895 3.24219C11.6973 3.23541 11.7105 3.22404 11.7285 3.20899C11.7647 3.17869 11.8207 3.13262 11.8945 3.07422C12.0431 2.95679 12.2626 2.78976 12.5381 2.60156C13.0936 2.22205 13.8555 1.76844 14.7061 1.44043C15.5614 1.11058 16.4506 0.92996 17.2861 1.0293C18.0922 1.1252 18.9087 1.48722 19.6592 2.35938C20.8901 3.79006 21.1831 5.29989 20.9014 6.85449C20.6103 8.46039 19.6949 10.1486 18.4287 11.7959C16.1516 14.7584 12.9341 17.3434 11.0225 18.7598Z" stroke="#2D2D2D" stroke-width="2"/>
</svg>
