<svg width="30" height="30" viewBox="0 0 30 30" fill="none" xmlns="http://www.w3.org/2000/svg">
<path d="M2.20207 0.198895C1.9777 0.256907 1.67022 0.364641 1.52894 0.439226C1.13005 0.646408 0.548334 1.26796 0.323958 1.71547L0.124512 2.11326V15.0414V27.9696L0.323958 28.3674C0.556645 28.8398 1.14667 29.4448 1.5705 29.6602C2.23532 30 2.32673 30 15.0414 30C27.7561 30 27.8475 30 28.5123 29.6602C28.9361 29.4448 29.5262 28.8398 29.7589 28.3674L29.9583 27.9696V15.0414V2.11326L29.7589 1.71547C29.5262 1.24309 28.9361 0.638121 28.5123 0.422651C28.3461 0.339779 28.0137 0.223757 27.7727 0.174032C27.1079 0.0331497 2.77548 0.0580101 2.20207 0.198895ZM21.565 5.05525C23.3683 5.75967 24.6065 7.03591 25.2381 8.82597L25.4708 9.48895V15.0414V20.5939L25.2381 21.2569C24.6065 23.047 23.3683 24.3232 21.565 25.0276L20.817 25.3177H15.0414H9.26579L8.51786 25.0276C6.71454 24.3232 5.47631 23.047 4.84473 21.2569L4.61205 20.5939V15.0414V9.48895L4.84473 8.82597C5.5511 6.81215 7.07188 5.41989 9.16606 4.84807C9.5234 4.74862 10.6037 4.73204 15.2076 4.74862L20.817 4.76519L21.565 5.05525Z" fill="#2D2D2D"/>
<path d="M10.6702 6.38946C8.77551 6.61322 7.2298 7.8646 6.49019 9.77068L6.27413 10.3176L6.2492 14.8342C6.22426 19.8066 6.24089 20.0469 6.73119 21.0248C7.3046 22.1685 8.50127 23.221 9.69795 23.627L10.263 23.8259H15.0414H19.8198L20.3849 23.627C21.5816 23.221 22.7783 22.1685 23.3517 21.0248C23.842 20.0469 23.8586 19.8066 23.8337 14.8342L23.8088 10.3176L23.5927 9.76239C22.9528 8.12151 21.7063 6.96128 20.0691 6.4972C19.6287 6.37289 19.0553 6.34802 15.4154 6.33145C13.1301 6.32316 10.9943 6.34802 10.6702 6.38946ZM21.1993 8.80935C21.2741 8.85907 21.3988 8.99996 21.4736 9.12427C22.0304 10.0607 20.6924 11.0138 19.9943 10.185C19.7367 9.8867 19.7035 9.34803 19.9112 9.0414C20.1855 8.66018 20.7838 8.55245 21.1993 8.80935ZM16.4957 9.65466C18.0747 10.0607 19.3794 11.1298 20.1855 12.6795C20.6509 13.5745 20.8004 14.2044 20.8004 15.29C20.8004 16.3757 20.6509 17.0055 20.1855 17.9005C19.5456 19.127 18.7146 19.9558 17.5761 20.511C16.7035 20.9337 16.0553 21.0745 14.9999 21.0828C13.8863 21.0911 13.4043 20.9751 12.3822 20.4944C11.7173 20.1795 11.493 20.0055 10.8863 19.4005C10.3046 18.8204 10.1052 18.5469 9.78105 17.9005C8.91679 16.1768 8.91679 14.4033 9.78105 12.6795C10.6038 11.0303 12.2492 9.81211 14.0442 9.53035C14.6509 9.4309 15.8725 9.4972 16.4957 9.65466Z" fill="#2D2D2D"/>
<path d="M14.1603 11.4779C12.6146 11.8094 11.4013 13.0939 11.1354 14.6768C10.7032 17.2293 12.9885 19.5414 15.5481 19.1437C16.3957 19.0193 17.1187 18.6464 17.7337 18.0332C18.5232 17.2459 18.8639 16.4171 18.8639 15.2901C18.8639 14.163 18.5232 13.3343 17.742 12.5553C17.1354 11.9586 16.562 11.6354 15.814 11.4779C15.1326 11.3287 14.8251 11.3287 14.1603 11.4779Z" fill="#2D2D2D"/>
</svg>
