<svg width="30" height="30" viewBox="0 0 30 30" fill="none" xmlns="http://www.w3.org/2000/svg">
<path d="M3.27032 0.0424194C2.40736 0.153847 1.76144 0.476809 1.11001 1.12242C0.593278 1.63915 0.29389 2.14977 0.106237 2.85415C0.00644145 3.21232 0.000625127 3.95191 0.000625127 15.0063C0.000625127 28.1799 -0.034579 27.0409 0.42338 27.9804C0.722767 28.5911 1.41552 29.2835 2.02593 29.5832C2.96511 30.0412 1.82634 30.006 15 30.006C28.1737 30.006 27.0346 30.0412 27.9741 29.5832C28.5845 29.2838 29.2772 28.5911 29.5766 27.9804C30.0346 27.0412 29.9994 28.1799 29.9994 15.0063C29.9994 3.95191 29.9936 3.21232 29.8938 2.85415C29.5356 1.50967 28.5376 0.50589 27.1815 0.112522C26.8527 0.0127258 26.1012 0.00690842 15.2348 0.00109291C8.85919 -0.0047245 3.46991 0.013031 3.27032 0.0424194ZM17.3596 3.43548C19.7957 3.92864 21.8036 5.00282 23.4943 6.71711C25.0442 8.28445 26.0657 10.21 26.5469 12.4762C26.6936 13.1631 26.7055 13.3156 26.7113 14.6542C26.7113 15.805 26.6877 16.21 26.5999 16.6796C25.9307 20.3074 23.6235 23.3604 20.3183 24.9865C17.107 26.5658 13.1737 26.5422 9.945 24.9219L9.61623 24.7575L6.46378 25.7613C4.73205 26.3132 3.29358 26.7476 3.27613 26.7298C3.25868 26.7063 3.7047 25.3327 4.26827 23.6653L5.29562 20.6362L4.95521 19.9786C3.42307 17.0141 3.24674 13.5678 4.47399 10.4858C5.07858 8.95364 5.92409 7.70313 7.14521 6.51721C7.82021 5.85966 8.12572 5.60742 8.83592 5.14334C10.245 4.2216 11.8476 3.61119 13.5325 3.35283C14.3951 3.22395 16.538 3.27109 17.3596 3.43548Z" fill="#2D2D2D"/>
<path d="M13.7373 5.23179C10.1444 5.80118 7.13887 8.34322 6.02336 11.7599C5.14877 14.4427 5.5302 17.4779 7.03907 19.791C7.22091 20.0668 7.36785 20.331 7.36785 20.3723C7.36785 20.4133 7.10366 21.2178 6.7807 22.157C6.46356 23.0962 6.22877 23.8535 6.27009 23.8419C6.31111 23.8302 7.13887 23.5661 8.10774 23.2547L9.8808 22.697L10.4269 23.0199C11.4837 23.6304 12.8572 24.0767 14.1194 24.2291C14.9413 24.3231 16.3149 24.2643 17.0842 24.1058C21.0117 23.2838 23.9998 20.2664 24.7219 16.386C24.8863 15.5114 24.8747 13.6737 24.6983 12.8579C23.8522 8.92455 20.7585 5.93036 16.8546 5.26118C16.0443 5.12618 14.5063 5.10873 13.7373 5.23179ZM12.3166 9.59955C12.4516 9.72873 13.4731 12.1532 13.4731 12.347C13.4731 12.5582 13.2852 12.8754 12.8918 13.3275C12.6922 13.5507 12.5337 13.7855 12.5337 13.8501C12.5337 13.9146 12.6745 14.1788 12.8508 14.443C13.7254 15.7581 14.7763 16.6505 16.1735 17.2609C16.4787 17.3959 16.7134 17.4663 16.7958 17.4488C16.8662 17.4311 17.1304 17.1669 17.3771 16.8736C17.6236 16.5742 17.8939 16.2513 17.9701 16.1576C18.0934 16.011 18.1461 15.9932 18.3399 16.0226C18.5805 16.052 20.7938 17.091 20.9992 17.2673C21.1048 17.3555 21.1167 17.4139 21.0873 17.7721C21.0285 18.4707 20.8877 18.8053 20.4885 19.2103C19.9308 19.7738 19.1147 20.1084 18.2869 20.1142C17.87 20.1142 17.0774 19.903 16.0149 19.5038C14.5179 18.9403 13.5552 18.3063 12.4045 17.1378C11.6823 16.4098 11.4007 16.0694 10.79 15.1945C10.2028 14.349 9.99162 13.9676 9.76846 13.3042C9.45744 12.3651 9.51009 11.4669 9.93866 10.645C10.2087 10.1166 10.7254 9.5824 11.0364 9.50618C11.3833 9.41771 12.1874 9.47618 12.3166 9.59955Z" fill="#2D2D2D"/>
</svg>
